<svg id="Camada_1" data-name="Camada 1" xmlns="http://www.w3.org/2000/svg" viewBox="0 0 1072.75 522.24"><defs><style>.cls-1{fill:none;stroke:#6d61f2;stroke-miterlimit:10;stroke-width:6px;}.cls-2{fill:#6d61f2;}</style></defs><path class="cls-1" d="M505.59,341.48" transform="translate(-5.96 -305.12)"/><path class="cls-2" d="M464.94,305.48H294.34c-22.56,0-45.78-1.34-68.25,1.13-30.56,3.34-59.18,11.56-86.45,26a235.9,235.9,0,0,0-64,50.11C34.71,428.1,11.6,485.46,6.78,546.15,2.19,603.91,16.9,664.65,48.36,713.41s78.11,86.34,133.73,103.32c29.77,9.09,60.15,9.49,90.85,9.49h192c18.83,0,36.87-16.56,36-36s-15.82-36-36-36H264.17c-14.27,0-28.45.18-42.65-1.68l9.57,1.28a194.07,194.07,0,0,1-48.63-13.34l8.6,3.63a204.53,204.53,0,0,1-44.25-26l7.29,5.62A219,219,0,0,1,115.6,685l5.63,7.29a233.25,233.25,0,0,1-29.51-50.89l3.63,8.6A244.47,244.47,0,0,1,79,589.56l1.29,9.57a252.25,252.25,0,0,1,0-66.56L79,542.14a244.47,244.47,0,0,1,16.4-60.39l-3.63,8.6a233.49,233.49,0,0,1,29.51-50.89l-5.63,7.29A219,219,0,0,1,154.1,408l-7.29,5.63a204.16,204.16,0,0,1,44.25-26l-8.6,3.63a194.07,194.07,0,0,1,48.63-13.34l-9.57,1.28c12.77-1.67,25.5-1.68,38.33-1.68H464.94c18.83,0,36.87-16.56,36-36s-15.82-36-36-36Z" transform="translate(-5.96 -305.12)"/><path class="cls-1" d="M579.08,791" transform="translate(-5.96 -305.12)"/><path class="cls-2" d="M619.73,827h170.6c22.55,0,45.77,1.34,68.24-1.12,30.56-3.35,59.18-11.56,86.46-26a235.66,235.66,0,0,0,64-50.11c40.91-45.39,64-102.74,68.83-163.44,4.59-57.76-10.12-118.5-41.58-167.26s-78.11-86.34-133.72-103.32c-29.78-9.08-60.16-9.49-90.86-9.49h-192c-18.83,0-36.87,16.56-36,36s15.81,36,36,36H820.49c14.27,0,28.45-.17,42.66,1.68l-9.57-1.28A194,194,0,0,1,902.2,392l-8.6-3.63a203.92,203.92,0,0,1,44.25,26l-7.29-5.63a219.38,219.38,0,0,1,38.51,38.76l-5.63-7.29a233.68,233.68,0,0,1,29.5,50.89l-3.63-8.6a244,244,0,0,1,16.4,60.39l-1.28-9.57a253.18,253.18,0,0,1,0,66.57l1.28-9.57a244.27,244.27,0,0,1-16.4,60.39l3.63-8.6A233.38,233.38,0,0,1,963.44,693l5.63-7.29a219.44,219.44,0,0,1-38.51,38.77l7.29-5.63a204.29,204.29,0,0,1-44.25,26l8.6-3.63a194,194,0,0,1-48.62,13.35l9.57-1.29C850.38,755,837.65,755,824.81,755H619.73c-18.83,0-36.87,16.56-36,36s15.81,36,36,36Z" transform="translate(-5.96 -305.12)"/><path class="cls-2" d="M457.73,705.88l77.69-77.68L658.15,505.47l28-28c13.33-13.33,14.32-37.76,0-50.91s-36.69-14.23-50.92,0l-77.68,77.68L434.78,627l-28,28c-13.33,13.34-14.33,37.76,0,50.91s36.68,14.23,50.91,0Z" transform="translate(-5.96 -305.12)"/><path class="cls-2" d="M339.63,646.06l95.16-95.17,13.56-13.55c13.34-13.34,14.33-37.76,0-50.92s-36.68-14.23-50.91,0l-95.16,95.17-13.56,13.56c-13.34,13.33-14.33,37.76,0,50.91s36.68,14.23,50.91,0Z" transform="translate(-5.96 -305.12)"/><path class="cls-2" d="M687.22,646.06l95.17-95.17,13.55-13.55c13.34-13.34,14.33-37.76,0-50.92s-36.68-14.23-50.91,0l-95.16,95.17-13.56,13.56c-13.33,13.33-14.33,37.76,0,50.91s36.68,14.23,50.91,0Z" transform="translate(-5.96 -305.12)"/></svg>