<svg width="59" height="28" viewBox="0 0 59 28" fill="none" xmlns="http://www.w3.org/2000/svg">
<g clip-path="url(#clip0_6_11)">
<path d="M25.1183 0.0185409H15.7817C14.547 0.0185409 13.2762 -0.0533048 12.0465 0.0791247C10.374 0.2582 8.80769 0.698916 7.31526 1.47312C5.99784 2.16339 4.81271 3.07243 3.81265 4.15978C1.57263 6.59284 0.307857 9.66821 0.0440673 12.9221C-0.207135 16.0189 0.597917 19.2755 2.31967 21.8898C4.04141 24.5041 6.59448 26.5189 9.63847 27.4293C11.2677 27.9167 12.9304 27.9381 14.6105 27.9381H25.1183C26.1489 27.9381 27.1362 27.0503 27.0886 26.008C27.0409 24.9657 26.2228 24.0778 25.1183 24.0778H14.1306C13.3496 24.0778 12.5735 24.0875 11.7964 23.9878L12.3201 24.0564C11.405 23.9324 10.5103 23.6919 9.65872 23.3412L10.1294 23.5358C9.26559 23.1726 8.45195 22.7042 7.70766 22.1418L8.10663 22.4431C7.31859 21.8398 6.61075 21.1422 5.99959 20.3666L6.30771 20.7574C5.65398 19.9184 5.11133 19.0016 4.69268 18.029L4.89134 18.49C4.45253 17.4519 4.15179 16.3628 3.99654 15.2495L4.06714 15.7626C3.90624 14.5783 3.90624 13.3783 4.06714 12.194L3.99654 12.7071C4.1529 11.5946 4.45455 10.5064 4.89408 9.46929L4.69542 9.93038C5.11419 8.95782 5.65684 8.04106 6.31045 7.2019L6.00233 7.59276C6.61257 6.81696 7.31949 6.11901 8.10663 5.51517L7.70766 5.81702C8.45183 5.25441 9.2655 4.78605 10.1294 4.42303L9.65872 4.61765C10.5103 4.26687 11.405 4.02643 12.3201 3.90243L11.7964 3.97105C12.4953 3.88152 13.192 3.88098 13.8941 3.88098H25.1183C26.1489 3.88098 27.1362 2.99311 27.0886 1.95083C27.0409 0.908552 26.2228 0.0206844 25.1183 0.0206844V0.0185409Z" fill="#6D61F2"/>
<path d="M33.5905 27.9807H42.9272C44.1613 27.9807 45.4321 28.0525 46.6618 27.9206C48.3343 27.741 49.9006 27.3008 51.3936 26.5266C52.7112 25.8366 53.8964 24.9275 54.8962 23.84C57.1352 21.4064 58.3988 18.3316 58.6632 15.0771C58.9144 11.9803 58.1093 8.7237 56.3876 6.10943C54.6658 3.49515 52.1128 1.48029 49.0693 0.569904C47.4395 0.0830779 45.7769 0.0610962 44.0967 0.0610962H33.5889C32.5584 0.0610962 31.5711 0.948964 31.6187 1.99124C31.6663 3.03352 32.4839 3.92139 33.5889 3.92139H44.5778C45.3587 3.92139 46.1348 3.91228 46.9125 4.01146L46.3887 3.94284C47.3037 4.06684 48.1982 4.30728 49.0496 4.65806L48.579 4.46344C49.4429 4.82633 50.2566 5.29471 51.0007 5.85744L50.6017 5.55558C51.3899 6.15954 52.0979 6.85766 52.7093 7.63371L52.4012 7.24285C53.0545 8.08209 53.597 8.99885 54.0157 9.97133L53.817 9.51024C54.2568 10.5473 54.5585 11.6355 54.7145 12.7481L54.6445 12.235C54.8048 13.4195 54.8048 14.6196 54.6445 15.8041L54.7145 15.291C54.5583 16.4035 54.2566 17.4917 53.817 18.5289L54.0157 18.0678C53.5971 19.0403 53.0546 19.9571 52.4012 20.7962L52.7093 20.4054C52.0979 21.1816 51.3899 21.8799 50.6017 22.484L51.0007 22.1822C50.2565 22.7447 49.4428 23.2131 48.579 23.5762L49.0496 23.3816C48.1982 23.7325 47.3037 23.9732 46.3887 24.0973L46.9125 24.0282C46.2136 24.1204 45.5169 24.1204 44.8142 24.1204H33.5905C32.56 24.1204 31.5727 25.0083 31.6203 26.0505C31.6679 27.0928 32.4856 27.9807 33.5905 27.9807Z" fill="#6D61F2"/>
<path d="M24.7246 21.4868L28.9764 17.322L35.6932 10.7418L37.2256 9.24059C37.9551 8.52589 38.0093 7.21608 37.2256 6.51104C36.4419 5.806 35.2176 5.74809 34.4388 6.51104L30.1875 10.6759L23.4686 17.2577L21.9362 18.7589C21.2066 19.4741 21.1519 20.7834 21.9362 21.4884C22.7204 22.1935 23.9436 22.2514 24.7224 21.4884L24.7246 21.4868Z" fill="white"/>
<path d="M18.2612 18.2796L23.4691 13.177L24.2112 12.4505C24.9413 11.7353 24.9955 10.426 24.2112 9.72043C23.4269 9.01485 22.2038 8.95749 21.425 9.72043L16.2171 14.823L15.4749 15.55C14.7449 16.2647 14.6907 17.5745 15.4749 18.2796C16.2592 18.9846 17.4824 19.0425 18.2612 18.2796Z" fill="white"/>
<path d="M37.2841 18.2796L42.4926 13.177L43.2342 12.4505C43.9642 11.7353 44.0184 10.426 43.2342 9.72043C42.4499 9.01485 41.2267 8.95749 40.448 9.72043L35.24 14.823L34.4979 15.55C33.7684 16.2647 33.7137 17.5745 34.4979 18.2796C35.2822 18.9846 36.5053 19.0425 37.2841 18.2796Z" fill="white"/>
</g>
<defs>
<clipPath id="clip0_6_11">
<rect width="58.7097" height="28" fill="white"/>
</clipPath>
</defs>
</svg>
